<?xml version="1.0" encoding="UTF-8"?>
<svg id="Layer_1" data-name="Layer 1" xmlns="http://www.w3.org/2000/svg" viewBox="0 0 720 540">
  <defs>
    <style>
      .cls-1 {
        fill: #fff;
      }
    </style>
  </defs>
  <path d="M130.39,64.87,127.13,70.02c-5.39,4.61-10.86-5.29-16.07-4.94-3.1.21-11.37,6.7-14.66,8.15l-8.17,5.04-19.51,12.88c-6.82,6.37-8,16.61-14.56,22.64-2.03,1.87-4.68,3.37-6.73,5.27-4.89,4.51-9.38,9.51-14.37,13.93,4.2,4.09,5.74,12.16,11.98,13.47,9.45-11.59,16.19-24.99,22.55-38.44,2.61-2.65,6.62-2.84,9.72-4.2,3.55-1.56,6.88-5.55,11.22-3.8.96.39.75,1.32,1.85,1.54,1.38.27,2.93-.16,4.29-.38l1.73,2.06c-1.38.67-1.74,2.33-2.7,3.56-.28.35-1.03.49-1.07.58-.06.12.51,1.62.43,2.55-.12,1.37-1.52,3.96-.03,4.87.59.35,2.29-.5,2.74-.91.42-.38,3.66-6.06,4.21-7.08.31-.58.29-1.26.26-1.89l1.13.07,17.1,20.09c.16-2.43,4.39-4.19,3.78-6.38-.59-2.14-6.24-.82-7.85-2.75-1.9-2.27-1.62-13.66-3.63-17.04.98-5.74,2.76-12.65,6.04-17.5.44-.65,1.43-.83,1.56-1.07.36-.63-.19-2.04.55-2.57,3.1-2.25,6.97,7.86,7.99,9.37,1.1,1.62,3.37,3.35,4.45,5.15,2.05,3.4,4.49,12.97,9.6,5.6.42-.61,3.2-5.81,3.33-6.27.51-1.96-.19-4.67,1.79-6.35,1.49,1.9,4.59-.02,5.94,2.24-.65,13.02-9.83,23.4-17.93,32.8-1.2,1.39-6.5,6.04-6.38,7.36.09.98,1.67,2.62,1.62,3.92-.07,1.84-3.21,2.51-3.58,3.94-.39,1.46,1.28,2.65,1.35,4.25.14,3.3-4.03,6.61-6.54,8.28-3.34-1.27-3.77-4.58-7.69-2.42-1.83,1.01-8.17,9.68-9.66,11.94-5.26,7.98-9.17,17.33-14.72,25.12h-7.2s-1.15,1.15-.71-.23c.62-2,2.77-3.7,1.91-6.49-1.41-1.4-8.9,4.21-10.31,5.3-.8.62-5.81,4.68-6.04,5-.43.57-.55,1-.45,1.71,5.52-1.21,12.39-4.3,18.02-4.34,1.93-.01,4.2.93,6.2.99,12.31.41,26.12-2.56,37.4,2.92,4.17,2.03,11.22,8.96,14.95,12.41,17.8,16.45,32.84,35.15,49.89,52.35,5.32,5.37,11.05,10.4,16.08,16.08,3.08,3.48,6.08,7.82,6.73,12.47,1.54,11.13.21,19.79,9.58,27.85,7.44,6.4,19.89,16.51,29.67,17.88,3.85.54,1.97-1.24,1.68-3.14-.65-4.17-.56-9.25-2.03-12.84l.92-.44c-1.65-6.05-1.43-12.89-2.58-19.03-.64-3.46-3.49-10.9-5.53-13.67-.85-1.15-2.85-1.05-1.7-3.1.93,2.53,3.65.83,3.61,3.84,2.15-.5,4.13,3.99,4.76,6.03,1.83,5.88,1.69,10.95,2.43,16.77.85,6.62,2.56,14.65,2.89,21.1.1,1.95.54,3.57-1.45,4.34.94,1.04,2.92,1.31,3.57,2.66,1.58,3.29,2.56,15.37,2.69,19.39.12,3.8-.51,7.53-.52,11.04-.03,6.57.06,13.14.02,19.7l.47.95.97-.24-.48,2.4,1.4.03c.17,2.35-.47,4.42,1.03,6.45l-1.01.52c2.73,6.04-1.36,12.94-1.44,19.17-.05,4.11,1.81,8.52.29,12.73l-2.17-.02.48,2.88,1.19-1.43c1.62,1.32.3,3.54.34,5.03.05,2.15.75,4.66.38,6.96l-2.39-1.44c-.03,2.17,1.5,4.38,1.48,6.49-.01,1.71-1.94,5.61-1.81,6.73.04.33,1.9,2.18,1.67,3.37l-2.3.94,1.43,2.16.08-1.84c2.02-1.21.63.54,2.32.4l.72-1.43,2.17.96-.96,1.91c.68.1,2.55.14,2.15-.94-1.5-1.15.68-2.19.26-3.85,1.45-.59,1.07,1.93,1.68,1.93l1.19-1.92.48,2.38c-2.48.09-3.07,1.81-1.12,3.35l2.33-.95.47.98c3.45-1.93.71-1.7-.12-3.24-.3-.56-1.19-3.14.36-2.53l.51,2.86,1.86.08.34,1.4,3.53.94-1.86-2.22.71-1.64c2.45.04,2.77,4.12,3.08,4.34.17.12,2.66-1.11,3.82.47l.76-1.39,2.13.43c-.94-2.71-5.1-.93-4.32-4.32-1.21-.37-2.06,1.01-2.86,1.24-1.3.36-1.42-2.78-.21-3.13l4.03,1.41c-.94-2.23,1.72-2.25,2.86-3.59l-.91-1.38,1.88-1.98c-2.62-.92-.14-2.77-1.44-5.04-2.28.92-.14,3.76-2.87,4.8l.04-7.65c1.39.15,2.2.09,3.07,1.4l.74-1.42,2.86,1.69-.96,2.12c3.95.96-1.23,3.02-.48,3.85l1.43.48.44-1.64,1.48-.04c-.51.39-1.83,2.94-1.99,3.03-.11.06-2.14-.8-1.84.81.13.73,1.23.31,1.33.39.55.47.33,1.61,1.68,1.66.51.02,2.23-.22,1.78-1.32l-1.91.48v-3.36c.83-.22.22.97.72.98,1.71.03,2.29-1.98,3.14-2.63,3.44-2.61,7.3-4.49,10.04-8.2-2.2-.91-4.27,2.88-6.02,3.14-1.95.29-1.96-1.29-3.57-1.45l-.24,1.92c-2.19-2.38,1.84-5.75-2.64-6.24l.96-2.39c-3.43-.04-5.64-1.68-9.11,0-.18-.88-.54-1.71-.53-2.64.01-1.07.35-5.29.53-6.15.04-.18,2.2-1.56,1.44-3.21l1.91.96-.02-2.38-2.37-.75,1.91-.23v-1.92c-.64.53-2.76.46-2.92-.31l.62-5.59c0-1.01,1-1.33,1.34-1.78-.27-1.61-.13-6.01.47-7.36.22-.49,1.63-.04,1.94-1.53l-.97-.46c1.14-1.18,1.11-2.41.49-3.84l2.39-.98c-.56-1.39-1.15-2.06-.48-3.59l-1.43.48c-.17-2.53.23-5.07.88-7.51,3.74-13.95,6.7-28.27,10.88-42.4.9-3.05,1.43-8.24,2.59-10.85,1.29-2.9,3.64,1.02,4.3,2.49,3.19,7.03,5.3,14.62,8.61,21.63,3.69,7.83,6.94,9.5,12.07,15.77,2.84,3.47,9.43,12.53,9.61,16.84.06,1.52-1.42,2.09-1.43,2.34-.02,1.17,1.8.19,1.88.26.08.08.79,2.04.8,2.15.07,1.15-2.35,2.91-1.72,4.54.73.14.55-.85.94-1.21.59-.55,1.27-.26.97.49-.43,1.05-6.76,3.54-1.97,4.02l1.97-2.33c.16,2.51,2.17,3.86,1.97,6.49-.06.81-1.79,1.22-1.49,2.63-.51.4-2.02-1.76-2.39-.23-.36,1.46.95,2.27.95,2.4-.01.56-1.95.38-1.43,1.68,1.74.42,3.24-3.8,3.59-3.83l1.67,1.19c-.51.69-2.59,1.35-2.39,2.39.26,1.35,1.56-.16,2.15-.24.86.17,2,4.57,2.12,5.58.17,1.47.68,5.08-1.38,4.99.02-.94-.23-2.12-1.44-1.92l-1.44,2.16,1.91,1.68-4.55.96-.49-.96,1.69-.2c1.5-4.01-.62-6.34-4.79-4.58.46,3,.97,6.5-1.69,8.61-1.61-2.2-3.05-1.19-1.2.96-2.21-.42-6.86,1.7-3.36,2.89l.45-1.71,3.39-.21c.96.73-2.41,2.18-2.88,1.92.06,1.45.98,2.81,2.63,2.39l.26-2.37,1.92-.49v2.39c.87-2.05,1.73-3.88,2.4-6.01.15-.47-.06-1.16-.47-.46l-1.44,1.19c-.59-3.66,3.59-3.43,4.22-.61.28,1.26-.41,3.23,1.8,2.93,1.01-.14.56-2.35.24-2.97-.39-.75-1.85.31-1.46-1.26,1.54-.44,4.26-1.32,4.31.95l-1.43-.48c.04,1.18-.39,2.54.72,3.35.65-.02,2.17-4.88,3.12-3.83.19,1.75-1.76,2.74-1.92,3.6-.25,1.34,1.22.38,1.85.78.72.46.91,6.77.07,7.38l-1.44-.73c-.49.51,3.42,3.63.24,4.32l-3.14-3.84-.94.72,2.86,4.33c-1.66.69-2.84,2.15-1.2,3.59l1.44-1.42c1.37,1.58,3,2.57,5.04,1.42l.24,1.44,3.6-2.39c.08,1.84,4.55,3.64,3.78.8-.04-.13-2.65-3.21-.65-2.24,1.22.6,1.33,4.35,3.36,3.83.87-.22.54-.88.44-1.43-.37-2.06-.9-1.2-2.09-2.19-4.15-3.45-.48-5.07,2.14-7.89.96.48.42,2.01,1,2.44.71.52,3.17.74,3.83-.05.39-3.2-.14-6.43-.75-9.6,1.02-.4,1.56,1.34,1.68,1.9.85,3.92.83,5.06,2.91,8.62.84,1.43,2.72,2.96,4.48,2.38.18-.97,1.2-3.89-.23-4.26-1.7-.44-1.71,2.52-3.08,2.86,1.64-2.42-.89-5.86-.86-7.36.02-.88,1.14-2.08.85-3.2l-1.43.48-.73-1.97-1.19.04.52-5.48c-2.69-.82-3.32-2.86-1.89-5.25.69-1.16,1.96-2.66,3.28-1.75l-.48-1.92,1.41-.04.99-3.32c-1.08-.29-1.37,1.14-2.14,1.25-.42.06-1.45-.51-1.69-.3-.19.17-1.44,5.19-2.88,3.84-.97-.91,1.14-.74.98-1.66-.28-1.59-2.06-2.27-2.21-3.09-.24-1.27-.2-3.94.75-4.84l-2.88.48c-.42-.46-.1-5.21-.23-6.01-.11-.68-3.5-6.97-1.38-7.46l3.52.51v-1.44c-.4-.4-3.95.46-4.22-.81-2.78-11.7-4.03-24.01-6.55-35.7-1.47-6.81-5.28-16.29-5.97-22.83-1.5-14.26,8.7-13.36,19.14-10.5,18,4.92,36.89,7.2,54.82,12.38,5.05,1.46,14.47,6.97,17.93,7.51,13.91,2.18,28.68-5.15,43.19-5.27,7.07-.06,14.17-1.49,20.62-1.42,3.54.04,9.7.65,13.38,1.02,5.17.51,10.81,3.55,16.15,4.07,1.53,1.2,3.18,8.52,3.29,10.58.47,8.56-5.11,22.26-9.83,29.41-3.2,4.86-7.68,8.7-11.05,13.43l-3.55.53.23-.97-2.87-1.89c-1.29,2.37-1.7,1.73-4.08,1.43.22,3.27,2.97,5.69,6.23,4.32.89,1.33-3.54,7.06-4.1,7.2-.54.13-1.16-.93-1.89-.95-.87-.02-1.85,1.23-3.12.47v1.44s2.88-.48,2.88-.48c.02,1.92-.48,2.93-2.57,2.41-.58-.15,0-1.17-.79-.96-.11,1.02-.76,2.35-.74,3.32.02.78.8,1.18.67,2.08-.11.74-2.75,4.32-3.3,3.71v-1.92c-1.73-.11-1.5,1.67-1.44,2.88l-2.4-1.44,1.93,2.2-.5,5c-2.18-.17-2-2.97-1.88-4.53l-1.47-.27c-.13-.79,1.28-.57,1.44-1.21.15-.62-1.04-1.55-.9-2.31.14-.75,1.66-1.13,1.37-2.23l-1.92.47.71-2.88-1.25,2.34-1.86.06c-.59-.55,2.33-3.53.15-4.24-.37-.12-2.45.02-2.53.68-.24,1.93,1.32,1.33,1.42,1.41,1.66,1.35-1.35,2.2-1.43,3.85l-.48.23-.24-.96-4.09,2.65,1.44,1.19-1.47.27.03,2.14c-.35.41-4.03-1.85-3.84-2.87-.6-.22-.84,1.62-.83,1.71.09.49.98.51,1.18.77.38.5-.03,5.2,3.49,4.23v-2.4s2.4.48,2.4.48c.57,1.14-.97.88-.98,1.22-.01.5.47,3.95.61,4.66.64,3.3,1.95,1.61,2.53,2.23l.63,2.83-1.83,1.52h4.32c-.81-.92-.63-3.01-1.09-3.71-.24-.36-1.25-.43-1.57-1.07-.37-.75-.03-1.77-.34-2.31-.26-.44-1.86-.37-1.32-2.02l1.43.96.48-2.4c.2,1.68,1.7,2.77,2.16,4.32.55,1.84-.29,5.2,1.18,6.86.81.91,5.31,1.79,4.35,3.69h1.92c-.93-1.23-2.15-2.56-1.83-4.25l.88-.31c-1.61-.38-.86-1.71-.96-3.12l1.67,2.4,2.96-2.82,1.37,1.86,4.33-2.33c2.26,1.65.21,4.82,1.92,6.65l.36-.85c1.32-.19.81-1.39.84-2.5.8-.12.52,1.26,1.23,1.43,1.81.44,4.09-5.18,5.3-5.7.59-.26,1.55-.1,1.15.67-.95.54-2.71,1.9-1.89,3.1.15.21,4.23,1.29,4.18-1.03-.04-1.77-.89-2.22,1.31-3.73.87.55.58,1.66.98,2.38.58,1.05,1.98.51,1.66,1.93l-2.87-.96-.48,1.92c1.96-.09,3.98.16,5.94-.06,3.17-.36,4.03-.91,7.5-.9-.12-.71.18-1.04-.96-.97,2.16-1.93.46-1.97.47-4.31-2.07-.36-2.02,1.47-2.63,2.88-1.4-.6.4-3.59-1.67-4.59-1.22-.58-1.24,1.68-2.41,1.23-1.69-2.08,3.98-12.83,5.86-14.73.11-.12.84.32,1.35-.34.98-1.26,1.37-5.51,3.24-4.45.16.09-.05,1.24,1.07.8.93-1.85-.85-3.56,1.21-4.79l.94.96,1.69-.96-.95,4.32,2.88-.95-1.44,2.87,4.79-1.92-1.43,3.36,2.64-1.43c2.24,1.84-1.66,1.24-.48,3.35,3.22-.19,1.51-3.55,2.16-5.48l-.96-.52c.95-1.29,2.14-.51,3.35-.23l-.48.94c.64.14,2.62.06,2.18-.95l-.73-1.44,1.43-.24-.9-.96,3.07-2.16c-.05,2.05,1.26,2.02,2.15,3.6l-1.44,1.19,2.87.72c-2.67,2.82-2.13-.87-4.79-.24.18,1.56-.61,3.64.72,4.79,1.58-.57,1.62-2.36,2.76-2.99,1.26-.7,3.7-.86,5.16-.83l-.95.48c.16,2.96,3.7-3.15,3.83.48l-1.92.48,1.91.24c-.92,1-1.66,2.83.24,3.12,1.07-.59.47-1.86.76-2.52.18-.42.77-.32.9-.71.31-.96-.12-2.36.98-3.24l-2.86-1.68c2.12.84,3.99-.61,5.04-2.39l1.21,1.91,1.67-1.37,1.19.89.03-2.66-3.36-.27-.03-1.39c-1.25-.5-.77.84-1.26.97-2.2.56-2.44-1.73-1.62-3.36-4.24-.12-5.16,1.99-5.77,5.76-1.37-.53-2.91-3.45-4.6-3.81-1.41-.3-.62,2.19-1.88,1.9l-3.11-1.93-.24,2.87c-1.1-.81-.99-3-2.63-2.87l-1.16,2.92-3.15.67,1.93.98c-.63,6.93-4.89,3.21-6.28-.97l1.46.7.24-.95.73,2.4c2.42-.56,1.4-2.13.47-3.84.95-.03,1.72.38,1.44-.96l-5.76-.24c6.53-8.18,13.34-16.15,19.89-24.28,3.29-4.08,6.2-8.98,9.63-12.93,3.69-4.26,11.09-9.38,13.89-13.47.81-1.18,1.62-3.11,1.72-4.54.17-2.39-2.13-6.62,1.44-8.17,2.33-1.01,5.15,2.67,6.24,4.32,5.34,8.08,10.19,20.68,14.32,29.84,3.02,6.7,6.8,14.09,9.41,20.83,4.15,10.72,1.97,31.66.72,43.43-.71,6.71-4.49,14.04-4.76,19.76-.06,1.26,1.34,5.28-1.23,4.48-1.09-.34-.44-2.27-.96-2.87l-2.64,4.31-1.92-3.84c-.02,2.17.67,4.11-1.92,4.8-.63-1.84-.74-5.09-3.36-4.8.26,2.28,2.14,1.56.95,4.32-1.11-.35-1.33-1.42-1.81-2.27-.59-1.06-.71-1.07-.59.11.24,2.3,2.82,5.8.97,6.97l-.24-1.44-2.16,1.91c1.84.1,1.64,1.82,2.64,2.88,1.3.5,1.15-.95,1.48-.99,1.52-.16,3.07,1.34,4.99-.93.17,1.16.03,1.29-.96,1.67l1.2,1.2c1.25-.7.37-5.43,4.08-1.19l.97-.72c.21-.28,3.44,3.69,3.35-.47l-1.91-.24,1.68-1.68c.58.79,2.01,1.63,2.39,2.42.39.82-.59,1.87,1.69,2.37l-.47-4.8c2.18.37.29,3.56,3.84,2.88v-2.4s2.16,1.37,2.16,1.37l.96-.89.24,1.44,1.68-1.91,3.06,3.59-.9,1.2c2.32-.87,1.72.24,2.28.45,3.21,1.22,3.36-.43,4.69-.46,1.01-.02,1.37,1.49,2.38,1.46.16,0,2.69-.71,3.02-.82.85-.29.21-1.49,1.55-1.11l1.44,1.92-.71-2.88,2.4,2.4c.76-.32-1.11-1.61.48-1.45,1.57.16,3.64,1.68,5.51,1.44-4.42-3.51-10.41-5.13-15.84-3.36,1.15-2.35-.15-6.37.25-8.22.37-1.74,3.86-5.2,3.59-7.62-1.51.69-1.79,3.13-2.87,4.02-.14.11-2.72,1.85-2.88,1.92-.54.25-2.07-.17-2.89.77l3.84-37.92,2.42.25.96-1.92-.99-.48,1.43-1.93c-.98-1.19-2.54-.17-2.88-1.92-.32-1.6.82-6.74,1.92-8.03.44-.51,3.18-2.19,3.84-2.46.47-.19,1.22.18,1.92-.03,1-.31,1.77-1.31,2.89-1.23.24.27-.22,3.15,0,3.98.09.35,2.47,1.42,1.46,3.69l2.16-4.79,1.44,6.23c1.59-1.2,1.43-3.47,1.69-5.28,1.3.19.2,2.89,1.91,2.4l1.45-9.11c.65-.12.75.88.81,1.33.2,1.41-.1,2.94.63,4.43l3.35-1.43-.48,2.39c1.43.51,3.48-1.87,3.69-1.91.95-.2,2.15.29,3.07-.23l-.04-1.21,3.53-.07c1.11-.36.78-1.9.78-2.81l-.48,1.44-2.16-1.47-2.63,1.47,1.43-1.68-2.61-.75-1.22,1.71c-.23.61,2.45,1.77.25,2.15l-1.69-4.31-2.39,1.44c-.08-6.94,2.87-13.5,3.35-20.4.3-4.37.39-11.52,0-15.83-.42-4.51-2.75-9.37-3.29-13.99-.63-5.41-.61-8.21-2.12-13.72-1.74-6.38-1.89-8.19-1.8-15.04.13-10.63-1.74-15.95-3.22-26.02-3.2-21.86,1.66-45.7,3.72-67.56,1.52-16.18.62-32.71.98-48.94.48-21.76,1.51-28.33-13.69-44.91-7.9-8.61-16.1-15.83-27.98-18.1-9.43-1.8-23.76-4.75-32.99-5.41-16.15-1.15-32.76-.41-48.93-.99-18.06-.64-35.94,3.53-54.28,2.92-16.89-.57-33.94-1.51-50.8-2.96-17.88-1.54-35.72-4.71-53.81-3.3-2.81.22-5.85,1.14-8.65,1.43-9.73.98-15.89-.12-25.43-.85-4.41-.34-10.03.06-14.37-.17-24.65-1.29-50.37-4.7-74.59.39-9.86,2.07-19.3,4.84-29.63,4.97-16.53.21-35.07-7.38-50.72-12.63-3.91-1.31-8.5-1.45-11.9-4.43l4.12-8.33.45-3.19c.15-1.53.18-2.3.26-5.54.09-5.29-.53-11.62-4.35-15.57-5.13-.78-11.21.52-15.84,2.86-2.36,1.19-4.28,3.14-6.71,4.09l-5.72,3.27M165.6,98.06c1.05-3.68,6.36-.98,8.43-.46,2.04.51,3.35-.5,5.19,1.53,1.79,1.97,1.47,4.89.42,7.18-.21.45-1.07.95-1.08,1.23-.02.82,3.41,3.19-.8,5.39l-4.93-1.41c-1.15-1-1.64-6.22-2.8-8-1.57-2.41-5.48-1.79-4.43-5.46ZM185.45,217.21c-3.89-1.25-8.93-4.02-11.22-7.5-1.86-2.83-.79-4.84-4.17-6.88-3.5-2.11-4.51.15-6.19.01-.83-.07-2.18-1.25-3.88-1.45-2.39-.29-7.74.86-9.04.4-.65-.23-.92-1.29-1.59-1.78-3.04-2.19-6.68-2.35-6.79-7.02-.16-6.43,4.89-4.59,9.49-4.1.44-.32,1.04-5.98,2-7.37,1.35-1.97,1.89,1.64,3.78-1.02,1.58-2.22.39-4.25.73-5.06,1.12-2.66,4.81,1.92,5.27,1.92.18,0,1.45-1.54,3-1.79,5.81-.95,9.31,7.13,13.87,9.43,1.37.69,2.94.74,4.34,1.42,4.85,2.37,9.57,6.07,15.04,6.33-.16,1.04-.38,3.5-.22,4.37.27,1.5,2.75,3.61,3.6,5.44.71,1.54,2.26,6.12,1.81,7.61-.24.79-4.54,2.55-5.46,2.71-2.28.4-3.98-1.19-5.96.28-2.81,2.08-1.5,6.88-3.61,9.35l-4.78-5.3ZM204.66,234.99l-1.85.91c-1.32-1.9-4.17-2.79-5.58-4.06-1.33-1.2-3.52-5.05-4.54-6.75-.61-1.02-1.9-.96-.83-3.34.13-.28,3.66-4.57,3.9-4.75,1.79-1.32,6.17-2.4,8.14-.96,3.81,2.77.43,8.64.19,12.55-.1,1.69.21,4.76.57,6.4ZM491.46,417.61l-1.47.26.49,2.15-.96.24c-.91-1.12-.48-2.47-.74-3.33-.48-1.53-2.63-2.19.19-3.65-.83-1.25.1-2.53.07-3.3-.01-.3-.82-.21-.94-.58-.52-1.62,1.24-4.72,2.36-3.53,1.05,1.11-.91,1.99-.91,2.12.1,2.69,2.47,6.77,1.9,9.61ZM504.94,148.66c2.33-1.32,4.07,5.8.57,6.1-.81.09-2.31-2.05-2.36-2.57-.05-.53,1.6-3.42,1.79-3.53ZM386.31,103.96c-.18,1.94-2.18,2.71-3.83,2.39-.08-2.72,1.42-4.05,3.83-2.39ZM370.13,105.27c.71.63,3.38.18,3.22,2.99-2.4.98-2.12-.13-2.51-.32-.21-.1-.59.28-.74.19-.21-.13-.28-.74-.63-1-.85-.63-2.24-.73-2.71-1.98,1.66-3.61,2.2-.91,3.37.12ZM361.84,104.43c.21.97-.62,2.26-1.45,2.63-3.87,1.75-2.07-4.52,1.45-2.63ZM354.63,106.83l-.21,1.46c-1.06.95-3.59.56-4.1-.75-.54-1.36,3.76-.47,4.31-.71ZM312.39,306.99l-.95-.49c-.13.18.37.9.19,1.45-.76,2.37-2.96,5.79-3.72,8.14-.34,1.04.37,3.32-1.03,4.32-.95.01-.88-4.64-.71-5.42.08-.38.86-.39,1.1-.94,1.3-2.97,1.93-6.17,3.49-8.95.26-.47,2.91-4.58,3.07-4.36l-1.44,6.24ZM320.54,288.27l-.94-.48c.03.67.46,1.22.28,1.94-.08.3-2.36,4.73-2.75,5.44-.26.49-1.03,1.45-.88.08,1.79-5.16,3.96-11.49,4.76-16.89.2-1.35-.82-3.23.49-4.77l-.93-.21.7-.95c3.26,4.66.45,10.83-.73,15.83ZM517.71,149.91c-.23.4-1.81.64-2.18,1.9-.41,1.38.05,3.4-.22,5.06-.42,2.53-1.66,5.06-2.14,7.46-.84,4.14.3,7.71-.19,11.82-.34,2.85-2.54,6.07-2.72,8.32-.15,1.83.74,4.29.35,6.58-.29,1.73-2.21,3.41-2.64,5.52-.54,2.61.18,5.4-.32,7.84-.34,1.65-2.21,3.62-2.65,5.03-1.32,4.28.89,6.17.88,9.96,0,2.21-1.31,4.89-1.24,6.54.09,1.99,1.66,4.55,1.62,6.85-.08,4.61-5.03,11.74-5.67,16.89-.4,3.21.78,6.26.45,9.1-.15,1.29-.96,2.17-1.01,3.35-.17,4.04,1.51,9.05.4,13.32-.29,1.11-1.16,2.12-1.48,3.32-1.65,6.25,1.61,12.37-3.54,17.7-2.73,1.64-19.73-.7-24.41-.51-5.38.22-12.02,2.32-17.51,2.68-8.38.55-22.75.36-30.82-.88-4.15-.64-8.52-2.57-12.65-3.18-3.53-.52-11.13-.01-13.49-1.39-3.8-2.22-2.48-8.19-6.4-9.94-.74-.33-1.5-.08-2.05-.27-.41-.14-.36-.78-.43-.81-.34-.14-1.05.61-1.83.15-.8-.47-1.96-3.6-2.67-4.56-3.91-5.22-3.63-4.06-6.22-10.58-.52-1.31-2.39-3.92-2.57-4.69-.21-.9.7-1.45.86-2.32.22-1.23.74-4.61.42-5.62-.35-1.13-2.67-2.67-3.16-3.54-1.42-2.5-.73-6.24-2.77-8.77-3.47-4.28-1.49-2.8-2.82-7.26-.22-.72-3.63-7.72-4.11-8.37-2.91-3.99-5.81-2.91-8.98-4.94-1.26-.8-1.43-1.72-2.36-2.44-1.58-1.21-4.21-1.54-5.71-2.45-1.87-1.13-3.25-5.14-5.03-6.97-2.87-2.94-4.38-1.75-7.29-3.17-2.83-1.38-7.09-2.69-9.2-3.86-2.04-1.13-4.23-3.77-6.89-5.15-1.06-.55-2.05-.17-3.26-1.01-1.57-1.09-4.17-5.29-4.33-7.17-.07-.79.62-1.23.51-1.99-.21-1.48-2.38-4.24-2.52-5.08-.2-1.22.66-3.52.24-5.58-.29-1.4-2.03-3.3-2.2-4.53-.17-1.28.56-3.71.38-5.65-.22-2.42-1.47-3.39-1.81-4.9-.37-1.61.26-3.68-.19-5.09-.36-1.14-3.44-1.73-3.76-3.44-.31-1.64-.16-8.56.76-9.82.52-.71,4.24-4.5,4.99-5.09,2.32-1.81,9.03-3.9,9.82-6.48.67-2.18.31-6.85.3-9.36,0-1.59-.15-2.59-.09-4.36.05-1.19-.74-1.83.32-3.04.58-.66,4.93-2.72,5.82-2.76,2.28-.12,5.36,3.08,8.07,3.14,2.84.06,5.32-1.94,7.23-2.3,2.37-.45,5.63.33,8.11-.05,3.3-.5,6.54-1.46,10.46-2.02,2.53-.36,4.33-2.01,7.08-2.51,5.52-1,5.55,2.53,8.87,2.68,2.89.13,3.52-1.66,5.96-2.39,1.05,1.96,3.07,2.39,2.45,5.22-2.43.05-4.23-2-5.76.96,2.8-.79,4.48,2.35,6.23,3.13,2.54,1.13,5.25.3,7.71.94,2.36.61,5.02,3.73,8.12,4.36,1.87.38,3.6.04,5.43.33,2.47.39,5.83,2.5,8.2,2.11,1.34-.22,2.67-1.09,4.4-1.26,7.63-.78,17.24,2.38,25.09,2.74,3.97.19,7.49-.65,11.82.18,1.96.37,3.99,1.59,5.85,1.83,2.89.38,6.85-.28,9.57.16.2.03.21.62.34.66,2.91.88,2.44,2.33,4.83,3.64,3.79,2.07,8.15,1.67,10.61,6.67,2.32,4.71-2.38,7.2-.92,9.56,2.97,2.5,6.99-.18,8.1,4.43.21.88-.12,1.62.06,2.29.79,2.9,4.59,3.12,5.05,5.52.23,1.21.16,6.19-.43,7.11l-5.82,2.56c1.56,6.54-5.49,12.34-.22,17.92.86-1.41,2.81-2.74,3.49-4.18,1.26-2.63,1.47-7.23,2.78-9.7,1.07-2.01,4.02-2.76,5.48-4.6.98-1.22,5.9-10.23,6.2-11.56.2-.88-.15-1.97.03-2.75.1-.44,1.21-.63,1.68-1.3,2.17-3.11,1.69-8.09,2.77-9.96.13-.23,1.14-.56,1.58-1.05,1.39-1.56,1.98-3.7,3.81-1.45,1.28,1.59,2.16,4.75,1.1,6.58ZM519.26,140.43c-1.46-.84-3.44-1.03-4.23-2.74l.88-5.43c4.88-.67,5,4.73,3.35,8.16ZM520.63,130.27c-1.5-.09-3.65-1.12-3.2-2.94,1.06-2.06,2.72-2.14,4.7-1.25.13,2.08-.22,2.69-1.5,4.19ZM585.5,322.12c-1.85-3.03-3.32-7.16-5.36-10.48-8.38-13.7-21.84-26.14-37.46-30.22-2.61-.68-5.88-1.96-8.56-2.5-.48-.1-1.99.91-3.33-.26l3.78-.88.29.89c1.35-1.5,2.39-.24,3.9-.05,8.73,1.1,16.25,4.05,23.01,9.64,1.03.85.06,1.91,2.14.96-.06,2.52,1.66,1.69,2.6,2.35.65.46-.47.5,1.22,1.35.74.37,6.13,5.98,7.06,7.05,4.71,5.42,10.64,13.64,13.07,20.84.45,1.33.95,3.01,1,4.42-.9-.77-2.81-2.18-3.37-3.1ZM652.68,173.28c-.38,2.4-1.68,4.79-1.91,7.69-1.28,16.42,1.66,33.42.01,49.93-.73,7.35-2.9,14.68-3.83,22.09-2.07,16.59-2.9,33.13-5.49,49.67-.46,2.91-1.93,6.82-2.2,9.85-.23,2.6,3.49,16.74,4.34,20.54.1.44,2.58,4.87,2.97,6.76,1.19,5.81-2,12.52-2.85,18.42-.63,4.36-.37,8.58-.57,12.84-.29,6.06-.98,12.1-.53,18.16,3.47,1.3,1.85,2.47-1.15,2.26-.25-.05-.72-3.45-.77-4.08-1.21-16.7.24-33.81,4.39-49.95-4.8-5.51-3.86-15.08-7.22-21.15-7.6-13.74-5.83-35.58-3.17-51.09,2.95-17.18,9.09-33.67,11.29-51.11,1.09-8.68.79-18.32,1.93-26.87.26-1.98,1.43-4.14,1.46-4.39.08-.7-.57-1.66-.48-2.75.83-10.01,5.53-19.89,1.65-30.55-1.51-4.14-6.5-9.71-7.43-12.74-.08-.25-.13-.78.23-.71.34.53,1.21.71,1.53,1.1,1.93,2.3,6.49,7.45,7.59,9.93,2.44,5.53,1.19,19.9.21,26.13Z"/>
  <path d="M296.87,400.01l-2.39-.71,2.15-1.26,2.16,1.73.96-2.88-1.65.5-.54-1-3.09.5c.64,1.11-1.58,3.26-2.4,4.32.72,4.27,3.07.31,4.8-1.21Z"/>
  <path d="M536.15,425.22c.39-1.25.89-1.02,2.16-.96.28,1.12-1.17,1.38-1.33,2.21-.06.33.13,3.18,1.33,2.58-1.11-2.35,2.22-2.75,1.14-5.63-.59-1.57-2.77-.61-4.01-.61.14.82-.26,1.78.72,2.4Z"/>
  <path d="M50.76,175.5c.14.25.95.37,1.25.88,4.54,7.72-6.06,7.86-10.5,10.03-.95.47-2.34,2.1-2.9,1.97-5.64-3.4-14.06-4.73-19.19-8.67-1.49-1.15-4.8-4.94-5.95-6.53-1.49-2.05-4.63-7.01-4.64-9.32-.02-9.38,16.55-18.72,21.88-25.67,1.44.77.97,2.26,1.44,3.35,2.38,5.5,10.53,9.53,10.82,15.14.14,2.68-1.47,3.39-.25,6.46,1.36,3.44,5.31,5.28,6.88,8,.9,1.55.71,3.58,1.16,4.37Z"/>
  <path d="M257.16,440.48c.14.22.86-.09.83.34l-.96.23.48,3.84.96-2.39,1.42.97c-1.35,1.86-2.19,3.99-.23,5.73,1,.02,2.18-4.83,2.05-5.98-.32-2.87-2.7-4.01.58-6,.53,2.42,1.83,4.88,1.44,7.45-.31,2.1-2.38,4.01-1.34,6.14.48.98,1.67.41,1.34,1.76h-2.39c-.46,1.73.81,1.28,1.44,2.4-2.91.72-1-1.92-3.36-1.44,1.5-2.4-2.03-2.69-1.44-5.27l-1.43.97.96,1.66-1.36.34c-.98.96.73,2.71-1.03,2.31l-1.45-3.11,1.45-.25-1.44-.96.96-2.39-1.68-.86-1.19,1.09c1.58.4.86,1.72.96,3.12-3.84.64-4.65-1.94-4.32-5.28-1.84-.31-.21.82-.68,1.43-.65.85-2.11,1.48-3.16.97v1.44s-.99-.28-.99-.28l-.7-1.64c-1.2-.37-.92,2.1-1.43,1.92-1.57-.54.72-1.72.23-2.4l-.86.38-2.97-2.31.25-.96,3.58.49c.37-2.83,1.72-2.5,3.84-1.45-.25-1.93.31-3.14,2.13-3.87,3.18-1.28,2.63.56,4.12,1.23,1.97.88,2.57-.74,3.24,2.99.25,1.4-.49,5,1.55,4.92l-.35-5.5c1.02-2.4-1.28-3.71-.13-6.02,1.77.53.44,3.19,1.09,4.22Z"/>
  <path d="M613.67,413.22c-.69.2-1.77-.37-2.39.72l1.18,1.69-3.12-.49c.42-1.2.34-1.62-.72-2.4l-.68,1.72-8.68-.29c.41-1.19.35-1.65-.73-2.39l-.23.95-3.62.41c-1.49-.5.43-3.65.26-3.77-.86.03-2.94.28-2.82-1.13.44-1.78,2.14-1.86,3.3-2.96l-.95-.71,1.68-1.44.75,3.8,2.31.1.83,1.83,2.1-.46c-.7-1.21-2.35.55-1.95-1.86l-2.37-.06.04-1.39c1.36-.93,3.44-.06,4.31,1.14,1.13,1.55-.62,2.08,2.85,1.22l.48,2.87,1.2-2.87,2.64.94-2.16-6.71,1.69,4.32c1.91.48-.17-2.11,1.43-2.4l.25,1.45,1.67-.49-.96,2.62c1.99,1.64,1.9,2.53,4.8,1.7-.62,4.54-3.19.75-3.35.96.11,1.2.72,2.13.96,3.36.33-.09,2.16-.99,2.25-1.08.72-.7.33-2.97,2.07-2.76.4,1.61-1.74,2.45-1.85,3.68-.09.94,1.87,1.62,1.37,3.03-.46.48-3.79-1.29-4.24-2-.17-.26.43-.76.41-.88Z"/>
  <path d="M327.11,444.9v3.36c1.89.69,2.57-2.12,2.93-2.36.14-.1,2.36,1.02,3.31-.04.66,2.03-1.75,1.68-1.93,2.16v1.2s1.45-.48,1.45-.48l.5,2.6-1.41,1.03.43,2.13c1.56.37.56-.97,1.24-1.49.31-.24,2.9-.99,3.3-.91l.26,1.91c.4.35,2.83-1.56,2.4.48-1.38.94-3.76.55-4.96,1.06-.69.29-.6,1.12-1.17,1.33-1.51.57-4.15.35-5.62.75-.67.18-1.1.37-1.69.71-.43-2.11,2.75-1.42,2.88-2.17l-2.87-5.99-.73,1.43-1.38-.92c-3.22,1.16-1.31,4.9-2.44,5.78-.75.58-1.57-.3-2.1.01-.32.19-.67,2.28-2,1.86.24-1.52.71-2.13-.48-3.35l2.4.27,1.46-2.47-1-.93.98-1.67-1.44-.96c2.67-1.33,3.86,1.81,5.11-1l2.08.52c.29-.34-1.74-4.27.48-3.84Z"/>
  <path d="M204.71,398.34v.96c-1.68.58-1.41-1.09-2.21-1.37-2.8-.97-.9,1.65-1.15,1.85-1.22-.35-3.13.4-4.09.27-.64-.09-2.15-1.9-3.02-.62-.38.56.54,1.93-1.76,1.31-2.02-.55,2.44-1.7-.24-3.12,1.59-.38,1.4-1.46-.24-1.2-.85,2.6-2.52,2.41-5.04,2.4l.04-2.11-1.74-.74-.24-2.19,1.47-.25c-.85-1.73.43-2.7.96-4.31l-1.91-.24c.59-1.16,1.38-.09,1.78-.34.21-.13-.07-.93.8-.88,2.25.13,1.14,1.78,2.68,1.95l-.71.94-1.2-.95c1.47,3.04-1.64,2.19-.96,5.28,2.59-.73,4.55.95,7.2,0v1.45c1.81-1.02,2.69.26,4.14.43,1.03.13,4.32-.09,4.49.06.18.17-.48,1.85.97,1.42-.66-4.4,4.56-3.3,7.2-2.4.6-2.32-1.51-.67-1.69-2.38l.73-3.38c1.54-.48,1.33.76,1.78.98.71.35,1.76.1,2.53.94-.19-2.31-3.88-1.65-.49-3.84l1.36,1.54-.87,3.74c.91-.45,1.55-.22,1.43.96-1.35-.94-.59.57-1.6.44-1.63-.2-.77-2.57-3.2-2.36l1.39,4.27c-1.39.64-2.61.69-4.01.03l-.55,1-1.16-.5-.25,1.47-2.63-.5Z"/>
  <path d="M459.11,392.58c-1.2,3.22,2.26.9,3.84,1.93.77.8-2.16,2.38-2.16.47l-2.16,2.64,1.43.72c-.06-3.47,3.5-.96.97.23,2.35,2.3,0,2.97-2.4,2.64.66-1.53-.3-4.45-1.95-2.59-.06.71,2.23,4.1.26,4.51-.5.1-3.17-3.77-3.11,0h-3.84s.92-4.58.92-4.58c1.24-.44,2.34-.63,2.68.75l.95-.03c1.12-2.46,3.57-.73,3.62-4.05.01-.82-.81-2.04-.29-2.68l3.16-1.65-1.44-.24,1.44-1.68-.96-1.2c.67.07,1.47-.15,2.09-.01.58.13,0,1.17.79.97l.71-1.45,1.22.27-1.68,4.55c-1.19.87-2.74.91-4.08.48Z"/>
  <path d="M178.31,393.05c.98-.23,3-.51,3.71-1.08,1.87-1.49-2.08-1.51-.03-3.26l2.56.5c.26,1.29-.3.69-.96,1.19,1.07.78,1.06,1.89.96,3.12l-1.43-.48c.89,1.9,1.06,2.33-.73,3.84l-1.18-.76.47-2.12c-.89.77-2.77-.11-2.87,0-.07.07.09,1.13-.47,1.69-.62.62-1.93.45-2.31.84-.16.16-.4,1.8-1.54,2.26,2.42,1.06,3.56,2.96.25,3.85-.56-.09-1.12-3.73-.74-4.32l-1.44-.24c-.26-.82,3.26-2.46,2.41-3.11-2.44.42-1.46-1.82-3.84,0l-.48-1.92,1.91.48-.48-1.92-2.15.96c-.72.02-.23-2.67,1.67-1.44v-1.93s1.92,0,1.92,0c.28.93-1.06,1.35-.92,2.09.18.95,3.06,3.02,3.56,4.14,1.61-.74-1.01-2.66-.72-2.87h1.92c-1.12-2.5.1-2.7,2.15-3.84,1.98,1.75-.3,2.94-1.19,4.31Z"/>
  <path d="M86.63,162.18l-.45,1.71c-1.28.21-5.29,4.44-5.65,4.52-4.17.88-7.15-1.04-9.73-4.07,4.11-3.85,10.67-.47,15.83-2.16Z"/>
  <path d="M253.2,393.06c1.15-.05,2.33-3.21,3.11-2.87,1.32.58.19,2.09.35,2.99.12.7,1.28,4.24,1.77,4.41l-.43,2.2-2.17-.03-1.2,6.74-2.86-1.2c1.23-1.27,2.72-.53,2.19-3.16-.23-1.12-1.24-.57-1.24-1.4l1.43-.96c-1.61.16-1.27-1.73-1.45-1.92-.33-.34-2.22,1.07-2.86-.25l2.4-.24c-1.55-1.33-.03-1.89-.21-2.91-.13-.72-1.79-3.26-1.68-4.05,1.55-2.02,2.33,1.44,2.86,2.65Z"/>
  <path d="M390.47,382.02l-.46,2.37,2.36,1.22-.94,2.64-2.4-.95c.52,1.03-.42,1.73-.18,2.77.61,2.58,1.94,1.44,2.6,1.82.57.33.59,1.96,2.55,1.31,1.32,1.31,2.29,2.44.78,4.16-1.94-.25-.44-2.97-1.67-3.35-1.77-.54-1.84,1.77-1.68,2.88h-1.91c0-1.44,1.6-.92.95-2.88-.93.39-.17,1.38-1.91.96l-.08-1.36-1.36-.08c.78-2.13.44-4-.1-6.13l-3.26-.11v-1.44s1.91.48,1.91.48c-1.39-4.46,1.18-4.45,4.8-4.31Z"/>
  <path d="M425.99,419.94l-.89,2.25,2.81,2.06-.47-1.44,4.8-.48c.25,2.63-1.16,1.36-2.38,1.69-.81.22-4.63,3.89-4.96,4.66-.46,1.07-.65,2.56-.83,3.73-1.15-.58-2.21-.07-3.21-.12-.56-.03-1.05-.67-1.36-.67-.51,0-.81,1.08-1.67.78l1.78-2.87c1.3-.37,2.15-1.41,3.49-.49.54-1.8.77-4.06-1.44-2.89l-.96-.96,1.48-1.76-.52-2.55,4.32-.96Z"/>
  <path d="M448.55,401.22c.83,2.12-.09,2.86-.47,4.8,1.35-.58,2.91,2,2.19,2.91l-7.25,1.81-1.2-1.13.98-1.67c-.46-.43-2.79,2.45-3.83.93-.78-1.14.89-1.56,1.12-1.94.8-1.27,1.34-2.73,2.47-3.8l.47,2.87c2.09-.72.96-1.62,1.92-2.87l1.19,1.43c-.22-1.84.21-3.57,2.4-3.36Z"/>
  <path d="M179.27,430.02c.87.69-.95.89-1.01,1.65-.13,1.57.52,3.04.53,4.59l1.43-.96.24,1.44,1.46-3.85c-2.17-.49-1.21-2.21-1.31-2.34-.17-.23-1.06.29-.86-.53h3.36s-.28,1.46-.28,1.46l2.69,1.22-.5,1.63-1.2-.97-1.95,1.46c1.25,1.84-.27,1.96-.58,3.24-.19.75.48,2.24-.11,3.23l.96-.07.73-2.56c.98.38.99,1.98,1.33,2.3.44.41,1.72-.46,1.31,1.06l-1.16-.42c-1.14,2.01-1.09,1.12-3.12.92l-1.95,3.34c-.09-2.94-.36-5.86-1.99-8.36-.41-.63-1.37-.66-1.38-1.01-.03-1.52,1.28-.04,1.92-.24v-5.96c-.03-.5,1.38-.33,1.44-.28Z"/>
  <path d="M214.8,402.66c2.56.06,2.68-2.45,4.79-2.4-.63.73-.02,2.69-.09,2.81-.08.14-.85.19-1.07.56-1.48,2.43-.35,6.11-.83,7.8-.16.57-1.86,2.67-2.09,3.7-1.31.22-.49-1.24-.72-2.07-.1-.37-.91-.28-.94-.61-.18-1.95.72-1.76-1.44-3.74l.45-4.79.98-.55c-1.29-.35-.94-1.28-1.34-2.42l2.29-.48v2.18ZM217.19,404.1c-2.48-.42-1.63.46-2.39,1.57-.49.72-1.55.54-.96,2.74l1.65-.51.74.99.96-4.79Z"/>
  <path d="M576.71,425.22l-1.92,2.87,2.88-.47-.48,5.27c-2.18.49-.16-3.18-1.67-2.87-2.05.43-.61,2.28-1.93,3.35.02-2.2-1.88-2.55-2.88-4.31l-.96.95-.51-.99-1.16.51.46-2.86-2.38-.51c-1.03-1.02,2.29-1.03,2.57-.98.39.08.29,1.03.54.99,2.99-2.67,4.08-1.28,7.45-.96Z"/>
  <path d="M142.31,403.14h2.41s-.4,1.16-.4,1.16c.17.73,1.97.56,1.36,2.2-2.11-.11-3.06-1.23-4.55-2.4l-1.21,2.87,1.72.46-.19,1.36.86.34-1.92.24.48,1.44-1.44.48-.49-1.21.96-.7c-1.24.09-1.53-2.9-3.12-2.88-1.83.03,1.18,2.23.72,2.86-3.89.92-6.17,2.2-6.24-2.87l2.88-.49.24,1.44.73-1.92,1.64.5c1.62-2.2,4.2-1.57,5.32-4.81l.23,1.92Z"/>
  <path d="M294.95,408.42l1.68-1.44.99.94-.75,1.7c1.48.4.9,1.29.98,2.61l2.38.5v-1.92s1.44,0,1.44,0c-.87,2.3.78,3.66.53,6.03-.12,1.16-1.1.3-1.01,1.17,1.72-.34,1.89.95,1.91,2.4l-.96-1.44c-2.58-.05.76,2.66.49,3.83-1.04.27-1.87-1.7-2.18-2.37-.52-1.11-.83-3.26-1.42-3.9-.63-.68-3.23.45-2.26-2.31l-.86-.53.85-.07.11-2.34h-2.4s.96-1.92.96-1.92h-1.92s.96-2.4.96-2.4l.48,1.44Z"/>
  <path d="M434.63,394.98l-1.44.48,1.9.03.51,4.78c1.54-.71,1.18-2.55.96-3.84l.76.96h4.52c-1.88,1.42-1.15,1.08-.96,3.36l-1.35-.56-.09-2.32-1.85.55-.51,3.09c1.98.47.46,1.96-1,1.64l.44-1.35c-1.5-.93-2.02-1.88-3.81-2.62-.28-.12-3.34-.89-3.52-.87-.37.05-.6,1.53-1.72,1.76-.56.11-1.48-1.13-2.41-.28l-.49-2.87h1.92s-.48,1.43-.48,1.43c1.83.85,2.55-.97,2.7-.98.56-.04,1.21.48,1.79.38s.86-1.11,1.74-.84l.23,1.43c2.22-1.45-1.19-3.13-1.18-3.6l2.17-1.2,1.17,1.44Z"/>
  <path d="M460.55,407.94l-.48,1.43c1.95.45,1.75-.5,2.87-1.44,1.51,4.4-6.02,3.62-3.35,7.67l-1.92,1.92c1.44.74,1.76-.18,2.65-.47,1.48-.48.26,2.13-.53,2.31-.6.14-2.07-.7-3.22-.42-.67.16-.9,3.15-2.73.03l2.35-.53c.7-.88-1.61-4.2-2.83-4.03,1.86-.97,2.95-.41,2.88-3.12,1.17-.5,1.36,1.56,1.67,1.43.71-.58,1.17-.98.75-1.88l1.41-.04-1.44-2.87h1.92Z"/>
  <path d="M389.99,430.98h-3.84c-.18-.74.67-.37.97-.81,1.37-2-1.58-4.59-.97-6.88l2.39,2.4c.6-2.16-3.77-3.59,0-4.8l.48,1.91c0-1.84,1.79-2.84,2.65-4.31,1.04.76.53.76.17,1.59-.63,1.42-1.91,2.64-1.81,4.34.55,1.86,4.75-.58,4.75,1.02,0,1.04-2.02.36-2.42.51-1.45.54-2.96,3.38-2.38,5.02Z"/>
  <path d="M333.35,409.38l.48-.96c.42,1.12-.5,1.77-.71,2.42-.4,1.26,2.56,2.27,1.2-.98,1.22.36,2.85.72,2.89-.96l.95.72-2.8,3.33,1.37,2.89-.95.73-.73-1.44-.97.48.25-1.44-1.91.96-.47-2.19-1.93.27c-.47-1.71,1.62-.65,1.92-.96l-1.45-8.16-3.35,1.44c-.4-1.34.86-.88,1.22-1.43.63-.96-1.04-1.99,3.09-2.41.8.6-.36,7.05,1.92,7.68Z"/>
  <path d="M598.31,421.38c.59,1.66-1.95.36-1.43,1.67.94,2.35,2.16-1.48,2.87-.71l-.42,2.32,2.12,1.05,1.18-1.45-1.92-.24,3.83-2.16-1.43,1.68,2.87,3.36c-2.17,2.31-.85-1.37-2.88-1.19l.48,1.91c-2.02-.45-2.94-.26-4.8.48l.48-1.43h-1.45s.96-1.67.96-1.67c-1.65-2.01-2.99,1.38-1.44,2.86-.37.4-.48.7-1.11.66-2.67-.17-.22-2.18-.34-2.31-.05-.06-.77-.03-1.16-.48-.08-.1.06-1.35-1.24-1.92,1.82-.76,2.36-2.74,4.8-2.41Z"/>
  <path d="M196.66,413.13c.21.36,1.6.35,1.33,1.29l-2.19,1.68.03,1.92-2.39-1.45c-.64,1.65-1.57,1.29-3.12,1.45l.43-2.35c-.78-.3-1.59-.44-1.39-1.49h1.44c-.19-1.28-1.19-2.79.24-3.83l1.21,3.35,3.36-.96c-.28-1.34-.32-3.96.95-4.79.26,1.22-.4,4.33.11,5.18Z"/>
  <path d="M424.55,402.18c-.6,2.59.48,4.49,3.36,4.32l-.47-2.88c1.37,1.66,1.91-.16,2.63,0,.44.1.57,1.23.82,1.39.29.18,1.06-.43,1.37-.22,2.03,1.37-.54,3.88-.51,5.55-1.81-.5-.22-3.97-.48-4.32l-1.92.48c-.51,1.27.98.81,1,1.24.02.61-.52,2.06-1.47,1.64v-1.92c-1.6.72-2.84,1.13-4.32,0l-.48,1.44-.79-4.36c-1.41-1.07-2.55,1-3.06.52.68-1.99,2.36-2.93,4.31-2.88Z"/>
  <path d="M667.07,454.37c1.2.98,2.39.2,3.72.13-.16,1.44-.4,2.53-1.91,2.88.48-1.13-.8-1.97-1.72-1.83-.69.11-.34,1.87-1.64,1.35l-.24-1.44-2.16,2.4-2.4-4.8,2.42.27.52-3.34,1.34-.32.27-1.41c1.79,1.55.86,4.13,1.8,6.11Z"/>
  <path d="M402.95,391.14l-1.44,2.39h1.92s-.94,2.11-.94,2.11l1.9,1.26-1.93,3.11.97.24v.95c-1.51-.17-2.05.08-2.63,1.44-1.23-.88-.73-1.84.23-2.64-.81-1.1-3.03-.32-2.87-2.16,1.38.55,2.73-.35,3.81-1.19l-1.06-2.05-1.07-.41-2.64,2.2v-4.32c2.07,1.08,3.65-.9,5.76-.95Z"/>
  <path d="M242.15,394.02v3.84s-3.84-.95-3.84-.95l.48.95-1.21.39-2.4-2.32c-.41,1.79-1.31-.06-2.11,1.2l.44,1.2h-1.44s-.48-3.36-.48-3.36l1.91.48v-1.45s2.16,1.44,2.16,1.44l1.47-2.38c2.04.33,2.71,2.13,5,.95Z"/>
  <path d="M323.27,394.5c-.7.88.38,2.67.28,2.88-.53,1.09-2.55,1.6-3.63.96.45,1.73-.05,2.7-.49,4.32-.89.07-.59-1.42-1.03-1.81-.08-.07-.67.25-.88.08-.69-.56-.77-1.78-2.4-1.64-.34-1.25.77-1.12,1.71-.99,1.16.16.21,1.35,1.64,1l-1.44-3.83c1.48.32,1.87-1.32,1.99-1.37.2-.08,3.27,1.15,4.25.41Z"/>
  <path d="M470.15,426.66l-.96,1.43c1.78-.24,5.2-.56,4.8,1.92l1.91-.24c-.85,1.46-3.45.1-3.35,2.16l4.49-1.38,1.26,1.14c-2.57,2.43-6.23,1.02-8.39-1.23l-3.12.99c1.95-1.27.23-5.04,3.36-4.79Z"/>
  <path d="M415.91,412.74c.06.11-.93,2.21.72,1.92,1.38-.25-.24-3.27.25-3.84l2.4.48c-.02,1.63-2.13,1.09-1.44,3.36l1.42-.95.98,1.67c-1.37.46-.61,1.9-2.27,2.07-2.43.24-.99-1.72-1.09-1.82-.07-.07-1.32-.06-1.82-.34-.73-.41-1.16-1.54-2.76-1.57l-.24,1.9-1.94-1.21c-.3-1.58,3.55-2.55,4.58-4.06l-.25,2.14c.31.85,1.41.19,1.44.25Z"/>
  <path d="M169.99,406.67c2.69,1.69.85,3.51,1.6,6.06-1.65.34-2.2-1.03-2.4-2.4-2.48,2.15-3.26,1.46-5.75-.01.65-1.62,1.9-1.4,3.27-1.04l1.05-3.27c.93-.12,1.49.19,2.24.66Z"/>
  <path d="M598.79,459.79l-.96,1.67.96.55v1.61c-.86.31-1.21-.81-1.67-.8-.33,0-.82.75-1.45.79-1.03.07-1.73-1.15-2.52-1.32-1.45-.32-5.12.87-2.76-2.98l1.2.96.71-1.44c.85,1.5,1.42,2.66,3.12,3.35-.23-1.46,1.67-.08,1.45-1.91-2.04.22-1.49-1.17-2.4-2.4l1.71-.43c.63,1.04,1.21,2.23,2.61,2.35Z"/>
  <path d="M619.43,396.42l-.04,2.11,1.48.29c.22,1.74-.57.58-1.32.58-2.46.02,1.57,2.61.35,4.21l-5.27-1.92,1.43-1.43c-1.08.21-.85-.89-1.25-1.4s-1.15-.41-1.16-.77c-.05-2.01,3.22-.71,4.11-.8.21-.02.37-1.45,1.66-.88Z"/>
  <path d="M564.03,432.14c.57.55,2.07,2.46,2.51,2.65.64.28,1.75.23,2.62.53.35.12.34.93.64.93,1.24,0,2.06-.89,3.55.72-1.08,1.45-2.56,1.92-2.89-.24-1.27,1.4-2.16.07-3.84.28l-.73-1.75c-2-.68-1.53,1.53-3.09,1.47l-.96-1.92,2.87-.72c-.58-1.54-2.49-.73-3.06-1.15-.4-.29-.19-.94-.45-1.34-.21-.33-1,.12-.8-.63l1.67-.97c.53.91,1.24,1.43,1.96,2.12Z"/>
  <path d="M200.73,385.99c.1.04,1.2,1.4,1.11,1.78h.93s1.46-1.43,1.46-1.43l-.46,3.56.71.59,1.16-.31.78,1.88,1.65-.45.06,1.37,1.38.55c-1.44.67-2.8-.95-3.59-.97-.13,0-.48,1.69-2.16.98l.96-1.91c-2.29-.5-1.84-3.85-4.8-3.37l.49.95h-4.32c.27-1.25,2.17-.7,2.66-1.4.1-.15-.44-2.86,2-1.82Z"/>
  <path d="M353.99,456.9l.96-1.44c1.3-.46.75.89,1.28.97.77.13,2.25-.05,2.32-.97l.73,1.92,2.87-1.44c-.39,3.73-9.8,3.04-11.5,1.66-1.45-1.17.52-2.08,1.67-.81l1.44-1.33.24,1.44Z"/>
  <path d="M466.23,399.4c.21.32.05.92.09,1.33l.48-1.92c3.7.33.88,1.58.94,2.12l1.46,3.15c-2.47.89-3.75-2.03-6.24-1.44l.5-1.65c-.97.07-1.01-1.81-.75-2.19.54-.81,3.36.35,3.52.59Z"/>
  <path d="M173.51,408.9l.04,1.4c2.58-.09,4.02,2.71,5.73,4.36-2.78.81-4.36,1.03-7.2,0,1.09-1.11.49-2.66,1.93-3.11v-.71s-1.92-1.21-1.92-1.21l1.43-.72Z"/>
  <path d="M256.95,407.55l1.52,1.83h-1.92s.88,1.2.88,1.2c-1.52,1.37-3.14,5.49-4.72,2.17,2.58.3,3.6-2.29.48-1.44.03-.92-.06-1.82-.53-2.64-.49-.86-2.11-.05-1.87-1.69,2.49-.02,3.69,2.08,6.16.57Z"/>
  <path d="M137.42,399.37l2.49,2.8-4.31-.97-.24,1.44c-2.07-4.28-5.39.89-5.76.9-.12,0-1.18-1.18-2.16-.42l.82-2.4,9.17-1.36Z"/>
  <path d="M337.67,397.85l-1.23-.43-.52.95c-3.95-.86-1.29.95-.78,2.24.32.81.32,2.09.6,2.99l-2.32-.07c-.31-2.64-2.52-2.17-3.42-4.01,1.1-1.63,1.91.58,3.35.24l-1.44-2.39c1.71-.74,3.85.07,5.04-1.44l.72,1.91Z"/>
  <path d="M326.15,415.63c-.43,1.42-3.06.44-2.88,2.39l2.38.51v1.68s2.41.7,2.41.7c-1.85.64-1.81,2.61-4.31,1.92-.54-1.75,1.97-.52,1.43-1.67-.14-.29-.98-1.67-1.43-1.69v1.92s-1.92,0-1.92,0c-.39-1.26,1.26-1.24,1.42-1.48.09-.15-1.14-1.91-.75-3.35.23-.89,1.06-.89,1.14-1.05.12-.23-.1-2.07.6-2.75,1.76.68-.57,2.77,1.91,2.89Z"/>
  <path d="M314.63,453.06c.1.11-.2.99.1,1.32.46.51,1.65-.28,2.11,2.03.13.66.41,1.2-.26,1.72-2.07.92-2.87-.84-2.91-2.66-1.67-.39-.19,1.45-.98,2.38l-2.85-.46c-.56-.59,1.73-2.05,1.94-2.13.8-.32,1.54-.33,2.38-.26l-2.88-1.91c.82.97,3.24-.13,3.35,0Z"/>
  <path d="M663.29,423.13c1.31,2.19,2.24,1.22.78,4.97-1.69-1.27-1.7-.5-3.35,0,.25-2.16,1.27-3.71.98-6.02-.25-2.06-2.32-2.6-1.46-4.54l3.05,5.59Z"/>
  <path d="M307.43,393.54l-.93,1.61,1.86,2.4c-1.62.92-.68,2.53-1.88,3.18.22-1.48-1.1-.36-1.81-1.06-.26-.25-1.26-2.54-1.07-2.78.99.19,2.55,1.47,3.35.24-1.83-.8-3.46-1.2-3.83-3.6h4.32Z"/>
  <path d="M556.56,419.45c1.33-.32-.59-3.38,1.43-2.87l.04,5.97-1.39.32-.81,2.33c-1.6-1.3-1.76-2.25.24-3.11-1.17-.33-.9-3.81-1.05-3.99-.21-.27-1.07.23-.87-.56l1.91-.97.49,2.88Z"/>
  <path d="M382.18,406.18c.11.05.07.61.49.77.71.27,1.91-.25,2.52.75l-1.92.24.37,2.1c-.39.98-1.23,1.41-2.29,1.26v-1.44c-.24,0-.49-.04-.73,0-.77.09-1.14.97-1.91.99-.37,0,.03-1.34-.95-.97-1,.5-.09,2.54-2.17,1.91,1.49-1.73.06-3.36,2.86-2.92l.03-1.4.96.25.26,1.66,3.1-.96-2.39-1.92c-.09-.9,1.33-.51,1.78-.31Z"/>
  <path d="M480.07,402.83c.33.19.83,1.28,1.58,1.48-.7.99-.96,2.53-1.58,3.46-.24.36-1.18.5-1.28.89-.07.28,2.27,3.53,0,4.54l-.25-1.44c-.58-.14-1.74,1.71-2.15.24-.04-.15,1.67-.79,1.93-2.39s-2.76.35-1.93-2.16c1.97.28,3.09-1.05,3.77-2.73l-2.33-2.56c.76.1,1.56.27,2.23.65Z"/>
  <path d="M189.94,439.53c.34.3,1.24-.17,1.33.33l-1,2.12-1.4.04c.84-2.77-1.98-.48-2.16-.49-1.17-.03-.02-2.13-.24-2.39l-1.15.43-.76-1.15c.93-1.82,3.48-1.51,4.81-.48.52.4.31,1.34.58,1.58Z"/>
  <path d="M150.99,397.81l2.75,1.09.08,1.84c-1.22.39-1.22-1.23-1.49-1.36-.13-.06-1.67.63-2.34-.08l-.03,1.39c-1.98.45-2.44-.05-3.27-1.7l.67-1.13,2.15.96-1.92-2.39,2.17.84,1.67-1.33-.43,1.87Z"/>
  <path d="M414.47,415.62l-1.94,3.09c.18,2.1,2.65.94,2.42,2.66l-2.81.07c-1.58,4.54-1.12-.25-2.95-.78.23-.66,1.68-1.05,1.81-1.3.42-.74-.2-2.32.18-2.73.13-.13,2.81-1.31,3.28-1.01Z"/>
  <path d="M154.31,404.58v5.76c-.82-.13-.29-2.04-1.68-1.91-1.02.09.12,2.8-.97,3.38l-2.64.24-.48-1.22c1.05.2,2.62-.92,2.4-2.16-.5-1.15-3.88-.39-4.32-2.16,1.86.53,1.88-.97,3.35-1.44.54.39.09,5.37,2,1.51l.88.41v-2.4s1.44,0,1.44,0Z"/>
  <path d="M205.62,408.49l.25.85c1.81-1.47,1.79,1.67,3.65.17l.47-.85c.5,2.56,1.23,2.36,3.35,3.36-1.32.75-1.72.95-1.43,2.64-2.19-.19-.14-3.91-3.59-3.86l-.9.94c-2.08-.72-.41-2.57-3.67-1.89l1.87-1.36Z"/>
  <path d="M197.51,385.86c.19,1.33-1.31,1.38-1.93,2.14-.76.95-1.03,2.31-2.4,3.31-1.12.83-1.68-1.03-1.94-1.83l1.47-.99-.95-1.68,5.76-.96Z"/>
  <path d="M557.99,424.74c.61.53-.03,2.48-.46,3.07-.3.43-1.07-.31-1.46.52l.98.52c.36,2.77-1.96,1.61-2.66,3.55-.82-1.02-1.07-2.1-2.64-1.92l1.93-1.91,1.43,1.44c.02-1.07.02-2.5.5-3.46.09-.18,1.91-2.23,2.38-1.81Z"/>
  <path d="M686.06,461.8c.26.16.33,1.21.83,1.32.17.04,2.31-.87,3.37-.88.73,0,1.85-.57,1.64.65l-2.18.69-.46,2.44c-.54-1.24-2.4-.96-2.91-1.4-.45-.38-.59-1.3-.78-1.42-.35-.22-2.78.37-3.27.9-.63-.63,2.07-3.33,3.75-2.3Z"/>
  <path d="M221.51,433.86h-2.41s-.3,1.95-.3,1.95c-1.77.49-3.22.64-4.97-.03.31-2.42,2.7-1.77,4.32-1.44l-.96-1.91c1.73.15,2.5.72,3.6-.95l.72,2.39Z"/>
  <path d="M407.27,402.18l-1,2.65,1,1.18c-1.55.18-1.56.1-1.44-1.44-2.58-.02-5.16,2.89-6.23-.73-.55-1.86,2.39.65,2.87.25l-.48-1.91c.83-.27,1.07.64,1.66.74.8.13,3.4-.96,3.62-.74Z"/>
  <path d="M323.27,382.98l-.96,1.91,1.68.96,1.67-1.91c.1.73.48,1.42.51,2.17.1,2.81-1.93,2.63-.98.23-1.32-.17-.72,2.41-1.67,1.91-.44-.23-1.56-4.13-4.51-3.41l-.05-1.87c.96-.23,1.31.97,2.16.97s1.2-1.21,2.16-.97Z"/>
  <path d="M226.31,407.46c.97,2.58-.93,3.12-3.32,2.94.43,2.28-3.18,2.42-3.87.65-.47-1.21,1.33-.45,1.85-.78l.55-1.86c2.47,1.19,2.78-.21,4.79-.96Z"/>
  <path d="M416.51,398.7c.19.33,1.3.39,1.56,1.49.18.75-.46,2.04-.24,2.95l-1.68-1.92-.24,1.92-1.42-.52c.41-2.46-.37-4.36.95-6.68,1.38.32.63,2,1.07,2.76Z"/>
  <path d="M674.03,439.3c.14.08.12.79.4.81.56.03,4.96-1.7,4.04.71-.53,1.01-1.26.14-1.8.37-.13.05-.13.55-.25.61-3.26,1.6-4.35,1.73-4.19-2.66.62.03,1.21-.16,1.79.16Z"/>
  <path d="M166.79,403.61c-.67,0-1.38-.07-2.05.11-1.75.5-2.4.64-2.03,2.29-.58-1.33-2.36-1.54-2.98-2.04-1.32-1.07.4-3.01,2.01-1.31l.96-1.44c1.43,1.23,3.26.14,4.09,2.39Z"/>
  <path d="M186.47,397.38l-.48,1.91,1.84.07.56,1.85-.96-.25c-.37,2.78-3.38,1.92-1.92-1.19l-2.4,1.44-.45-2.62,3.8-1.22Z"/>
  <path d="M513.97,433.69c1.16.8,2.83.79,3.7,2.34-2.04.21-3.94-2.21-2.88,1.68l-1.44-2.4c-1.91.91-3.41.9-5.27-.25l1.91-.23v-1.45c2.69.65,2.06,3.08,3.6-.47.39-.18.12.61.38.78Z"/>
  <path d="M207.11,430.98h2.4s0,1.92,0,1.92c-2.2-.84-1.48-.34-2.87.96l.42-1.86-1.38-.8,1.34-3.76-2.31-2.21c2.49-.37,4.49.75,3.55,3.37-.22.6-1.61,1.12-1.15,2.38Z"/>
  <path d="M192.78,442.6c-.19.29.39.98.18,1.36-.29.51-1.6.59-1.69,1.42,2.93-1.18,3.36,1.93.48.96.23,3.09-2.34.77-.93-1.17l-.99-.5c1.29-.81.2-2.03,1.43-2.87.72-.49,1.5-.45,2.05-.75s.09-1.11.83-.94c.67,2.03-1.08,2.06-1.36,2.5Z"/>
  <path d="M486.48,433.38h-1.93s-.23,1.92-.23,1.92c-1.48-.79-3.4-2.33-4.91-2.06s-.13-2.1.58-2.15c1.55-.12.8,2.83,4.21,1.2,1.65-.78.5-1.55,1.8-2.27l.49,3.36Z"/>
  <path d="M201.88,445.33c.15.21,1.41.26,1.39,1.01-1,.37-1.89-.99-2.56-.88-.5.08-1.21,1.09-2.12,1.29-1.15.26-2.69-.39-3.96.07.64-4.03,2.25-1.27,4.77-1.47l.08-1.32,2.58-1.04c.76.43-.32,2.16-.19,2.35Z"/>
  <path d="M670.76,439.19l-.92,2.59,2.39.72-.49,2.4c-1.13.56-.89-.97-1.22-.99-1.84-.07-3.26,2.86-5.49,2.43l.72-2.43c2.06.41,5.03-2.12,3.33-3.78l-1.82.4-.79-1.39,4.29.04Z"/>
  <path d="M404.87,388.25l.05-2.35,1.87-.04-.44,3.62-3.4.7c.71-1.59-.96-2.06-.97-2.2-.04-.69.85-2.07.49-3.08,1.88.04,1.79,1.63.49,2.64l1.91.72Z"/>
  <polygon points="236.87 423.78 236.87 429.06 231.81 428.52 230.64 429.54 230.15 427.63 233.51 426.66 233.51 428.1 234.92 428.08 235.56 424.56 236.87 423.78"/>
  <path d="M560.39,425.7c.7,2.75-.9,4.58-.21,7.2l-1.7.47.96-.96-.75-.95-3.08,1.91c-.99-1.05,3.72-2.51,3.38-4.55l-.96-.93c.78-.71,1.07-2.35,2.37-2.19Z"/>
  <path d="M325.3,402.07c.47.59,1.81-.14,2.28.83l-1.47,2.13-1.33-.41c-.32,1.67-1.46,1.51-2.94,1.4-.59-2.13,1.47-1.45,1.69-1.87l.71-3.89c.99.13.72,1.37,1.07,1.81Z"/>
  <path d="M248.87,425.22l-.44,1.39,1.88,1.48c-1.38-.52-2.72.73-3.11-.96-1.2,1.3-3.18.76-4.26.94-.6.1.03,1.19-.78.98-1.02-3.91,1.24-1.68,2.56-1.88.24-.04,2.16-2.9,4.15-1.95Z"/>
  <path d="M411.11,384.9v1.92s2.13-.43,2.13-.43c.82.17.67,2.94,2.68,2.35-.78,2.98-1.03.41-1.2.48-.85,1.09-2.18,1.47-3.12.23l1.43-1.67-3.35.48.35-2.76,1.08-.6Z"/>
  <path d="M330.46,428.1c1.1,2.94-1,4.23-3.34,2.39-.03,1.41-1.36,1.47-2.41,1.92-1.44-1.96,5.31-4.63,5.75-4.31Z"/>
  <path d="M146.15,399.3h-2.39c-.15.8,1.21.48,1.33,1.17.05.28-.53,1.17-.38,1.71-.49-.21-2.53-2.39-2.71-2.41-1.37-.14-2.96,1.77-2.56-.94l5.05-1.44c.74-.02,2.05,1.25,1.67,1.92Z"/>
  <path d="M645.35,412.74l-.99,3.55c.05.36,1.32.1.99,1-.49,1.34-2.19-.62-3.35.24l.71-5.28,2.65.49Z"/>
  <path d="M223.91,394.5l1.44,2.87c-2.56.55-1.11-2.52-3.12-1.93l-.71.97c.03-1.85.45-3.06,2.24-3.75.71.89,3.33.4,3.51,1.12.73,3.01-3.12.47-3.35.72Z"/>
  <path d="M699.02,462.55c.25-1.25,1.52-1.34,2.64-1.36l1.77,2.43-2.1-.92-3.66,1.89c.14-2.98-1.55-1.02-2.4,0l1.44-3.35,1.19,1.43,1.1-.11Z"/>
  <path d="M473.51,401.7l.76,2.41-6.52,3.35c.49-2.18,2.58-.63,1.92-3.36l1.34.4c.54-.46,1.66-3.44,2.49-2.8Z"/>
  <path d="M385.67,400.74c.09.88-2.12.52-2.55.38-1.05-.33-1.6-2.67-3.69-2.55l3.12-1.68.95,1.43.96-.95.67,1.12-.91,1.5,1.44.74Z"/>
  <path d="M590.15,419.94c.59,2.55-2.54,2.9-2.41,5.28l-1.41-.51c-.33-1.41,1.3-1.45.83-3.1-.11-.38-1.28.03-.85-1.18l3.84-.48Z"/>
  <path d="M237.84,421.38c.78.2.29-.63.56-.84.41-.33,1.27-.06,1.83-.12l-1.72,3.38-3.54-1.7,1.67-2.16,1.2,1.44Z"/>
  <path d="M592.5,413.16c-.18.31-2.61.67-2.35,1.97l-.5-1.41-3.82.45,1.02-1.82,4.6-.97.86.39.18,1.39Z"/>
  <path d="M245.99,395.94l-.48,1.44,1.46-.29,1.42,2.69-3.75-.84c.06.94-.52,1.17-.81.37-.5-1.38-.14-2.91-.23-4.33l.93,1.23,1.47-.27Z"/>
  <path d="M311.75,433.86l.05,2.35c1.6.03,3.45-.62,4.98-.44.9.1.78-.11.72.97-1.67-.16-3.13,0-3.37,1.92l-3.36-.96c.85-.96-1.46-3.85.97-3.83Z"/>
  <path d="M394.79,427.62c1.03.9-1.47.84-.95,1.67l1.88.25,1,2.87c-2.76.38-1.72-2.31-4.8-.96l1.44-1.43-1.45-1.21c.53-.4,2.41-1.61,2.89-1.2Z"/>
  <path d="M125.99,402.66c.14,1.12-.97,1.82-1.92,1.93l.73.95c1.17.42.84-2.5,2.15-.71.18.97-2.16,1.57-.96,3.11h-.95c-.66-2.44-2.31-.14-1.88-3.55.27-2.14.78-1.82,2.82-1.72Z"/>
  <path d="M448.07,423.78c-1.08,1.74,2.29,2.08,1.91,3.1-.7,1.85-2.73,1.74-4.3,1.21,1.59-1.26.1-4.26,2.4-4.31Z"/>
  <path d="M380.39,399.78l.49,1.92-1.43-.48-.51,1.9c-1.99-1.27-1.54,1.47-3.33,1.46-.82-2.56,2.81-4.23,4.79-4.8Z"/>
  <path d="M480.79,387.68c.07.1,1.82.09,2.32.59l-1.2,1.41c-2.11-1.52-3.5-3.94-6.27-3.74-.47.03.14,1.09-.69.88v-1.44c1.38.04,3.78-.22,4.97.55.97.62.57,1.33.87,1.75Z"/>
  <path d="M654.79,425.89c.21.17.07.8.4.79l2.63-.97-.96,3.36-.47-.96-2.17.47-.24-1.43-1.43.95.95-2.65c.34-.32,1,.22,1.29.45Z"/>
  <path d="M443.61,426.81c.28.23,1.36,1.98,1.1,2.25l-3.12-1.91-.24,1.92c-1.17-.76-1.31-1.64-2.87-.96l.75-1.96c.97-.6,3.56-.01,4.39.67Z"/>
  <path d="M650.16,415.14c.13,1.34-.05.76-.74.93-1.64.42-3.01,1.39-4.04-.28l1.01-2.99,1.62.39.19,1.73,1.96.22Z"/>
  <path d="M244.55,436.74c.52,2.77-1.37,4.22-3.8,4.38l-.05,1.01-1.43.37c-.65-2.05,2.39-1.89,3.22-2.97.26-.33-.2-3.59,2.05-2.79Z"/>
  <path d="M396.23,421.38l-1.43-.48c-.17,1.49-.31,3.77-2.39,3.36l-.47-2.11c1.57-.89,1.87-.97,2.63-2.69l1.67,1.92Z"/>
  <path d="M302.16,385.86l1.44.25-1.2,2.15c-.69-2.16-1.31-1.63-2.35-2.35-1.46-1.02,1.87-2.84,2.58-3.4l-.47,3.36Z"/>
  <path d="M381.35,390.66l1.92.25-.71,1.18-3.61-.95c-.39-3.94,3.48-4.59,2.41-.48Z"/>
  <path d="M198.95,438.66l-2.71-1.13c-.1-1.07-2.04-.46-1.6-1.51.54-1.3,6.54-.99,4.31,2.63Z"/>
  <path d="M390.47,410.82c.39,1.08-2.41,2.35-2.4,2.68,0,.44.69,1.41.49,1.64l-3.36.48c-.48-.44,3.91-5.4,5.28-4.79Z"/>
  <path d="M590.63,406.5l-1.23-.43c-.32-.02.05,1.47-1.17.91l.36-2.66-1.8-.7.47-1.2c3.29-.38,2.96,1.78,3.37,4.09Z"/>
  <path d="M571.38,403.19l-.9-.52,1.43-.97c.83,2.34,4.78,5.96-.75,4.35l.22-2.86Z"/>
  <path d="M188.4,443.46l-.48,1.91,1.91.24c-1.24,1.85-4.06,1.68-2.86-.72h-1.45s0-2.4,0-2.4l2.88.96Z"/>
  <path d="M376.55,382.98l-.72,6.24-1.69-1.21.96-1.66-1.43-.73c1.62-.85.79-3.18,2.87-2.64Z"/>
  <path d="M398.98,412.43c.07.04.1.46.33.6.96.58,1.7.13,1.73,2.11l1.43-.49-.24,2.87-.77-1.89-2.32-.06-.08-1.85-1.39-.03v-1.43c.47-.03.84-.06,1.3.17Z"/>
  <path d="M170.57,395.56c.17.28-.4.99-.18,1.36.29.51,1.6.59,1.69,1.42l-3.84.48.23-3.85c.3-.73,2.05.49,2.1.59Z"/>
  <path d="M156.71,395.94l-3.11,2.39c-.66-.13-1.81-4.11,0-3.86l3.11,1.47Z"/>
  <path d="M237.98,408.27c1.65,1.24,2.59-.93,3.69.39-1.59,2.53-7.18,1.71-4.55-1.67.32.03.52,1.02.86,1.28Z"/>
  <path d="M243.59,407.94l.46,2.85c-1.78-.21-1.61,1.87-3.33,1.48l1.44.96-1.14.42-1.24-1.83c1.55-.29,2.07-2.01,2.82-3.17.25-.39-.26-.98,1-.7Z"/>
  <path d="M597.35,396.41c-2.39-.27-1.48,1.63-2.64,2.88l-1.67-2.6,3.21-1.64,1.11,1.36Z"/>
  <path d="M475.91,392.58l-.33,1.44c-.61-.17-5.38,2.89-5.42,1.2-.04-1.6,2.41-.83,2.77-2.11l2.98-.52Z"/>
  <path d="M213.83,427.15c.75.82-.91,1.1-1.21,1.44l-.47-.97c-.45.16-1.78,2.04-2.41.96-1.06-1.79,1.55-2.14,1.21-3.84l-2.39.96v-3.83c2.18.27,2.6,2.99,3.84,4.58.46.59,1.36.62,1.44.71Z"/>
  <path d="M122.63,404.57c-2.44.45-3.58,5.72-5.75,1.68-.24-1.15,1.82-.61,2.85-.97.62-.22,1.36-1.04,1.95-1.43l.95.72Z"/>
  <path d="M606.96,423.3v-1.45s-1.92.96-1.92.96v-3.35c2.4.66,5.69,2.57,1.92,3.84Z"/>
  <path d="M208.55,418.97l-3.84.48,1.69-3.35c.84-.2,2.69,2.08,2.15,2.87Z"/>
  <path d="M325.2,400.26l-.96-2.88,1.43.48-.47-2.88c.81.4,2.81-1.04,2.4.71-.08.33-1.22.85-1.33,1.5-.16.95,1.38,3.01-1.06,3.07Z"/>
  <path d="M371.63,388.13c-1.32,1.57-5.24-1.37-1.55-2.75,1.31-.49.18,1.61,1.19,1.43v-2.4c1.13.28.82,3.17.36,3.71Z"/>
  <path d="M229.67,428.58c.12.19-.07,1.03,0,1.43h-1.44s-.05,2.83-.05,2.83l-3.3.05.47-4.32c.74.17,4-.51,4.32,0Z"/>
  <path d="M472.77,384.69c1.27,1.25-.26,1.42.35,2.52.44.79,2.97.7,3.27,1.52-2.14.8-3.51-.56-5.22-1.51-.13-.23.47-2.36.67-2.8.55-1.21.67.01.93.27Z"/>
  <path d="M594.43,402.22l.03,1.4-2.08-.47-.32-1.46-1.42.26-2.89-1.69c2.95-.76,4.13,1.42,6.68,1.96Z"/>
  <path d="M467.75,394.5l.97,3.84h-3.36c-.53-1.66,1.07-1.57,1.34-2.02.46-.79-.58-2.19,1.06-1.82Z"/>
  <path d="M614.63,399.31l-.97,2.87c-1.39-1.3-.67-1.81-2.87-.96l.96-3.36,2.88,1.45Z"/>
  <path d="M219.97,390.78c.54.7.63,3.61,1.06,4.68l-2.29-1.67.85-1.68c-3.41,1.34-1.03-3.14.37-1.33Z"/>
  <path d="M179.75,416.57c-.15-1.49,1.3-1.5,2.4-1.44l-.48-2.4,1.7.96c.66,1-.48,2.5-1.23,3.15l-2.39-.27Z"/>
  <path d="M234.47,405.54l-.95,2.4,1.43.24-2.86,1.19c-.79-1.58.13-2.38.73-3.82l.45-.49,1.2.48Z"/>
  <path d="M310.79,406.02c-.22.79-1.52,5.08-2.88,3.83-.6-.55,1.72-2.2,1.44-2.39h-1.92s0-1.44,0-1.44h3.36Z"/>
  <path d="M263.27,411.78l.08,1.36,1.36.08-.49,1.92-3.36-1.21c.54-1.22.87-2.55,2.4-2.14Z"/>
  <path d="M308.39,404.1l-2.39.49c.62-1.22-2.58-2.65-1.44-3.84.75-.78,4.25,3.01,3.84,3.36Z"/>
  <path d="M232.43,431.55c-.46-.45-1.79.62-1.31-1.53,3.53-.7,5.13,4.32,2.16,3.35-.67-.22-.52-1.5-.85-1.82Z"/>
  <polygon points="338.07 387.69 334.79 388.74 334.8 386.82 336.71 387.3 337.91 383.46 338.07 387.69"/>
  <path d="M421.48,390.37c.49.36,2.26,2.07,1.63,2.68-1.57.17-1.49.12-1.46-1.39l-3.33-.77.95-.22v-1.45c.65.52,1.63.73,2.21,1.16Z"/>
  <polygon points="344.37 452.61 344.39 454.5 341.51 454.49 342 453.54 340.79 453.53 340.08 454.5 340.39 452.57 344.37 452.61"/>
  <polygon points="305.51 389.22 305.28 393.05 303.13 392.06 303.11 389.22 305.51 389.22"/>
  <path d="M149.03,401.71c.19,2.41-1.26,2.79-3.36,2.87l.91-1.27-.91-1.6h3.36Z"/>
  <path d="M585.35,422.82c-.57-.2-3.17-.86-2.87-1.67.36-.99,2.38-1.83,3.35-2.17l-.48,3.84Z"/>
  <path d="M327.11,454.5c-.49,1.6-1.52,3.44-3.36,2.87l.96-1.2-.98-.48.75-1.69,2.62.49Z"/>
  <path d="M334.31,389.7c.18.13-1.53,1.98-1.68,2.42-.34.99,1.02,2.52-.47,2.37l-.72-4.8h2.88Z"/>
  <path d="M559.91,406.97c-.68,2.14,1.06,2.15.95,3.84l-3.84-2.63.57-1.13,2.32-.08Z"/>
  <path d="M308.39,413.22l-.37,1.37.86.3-.52,1.17-4.29.03c-.25-2.21,2.86-1.09,3.33-1.48.12-.93-.38-1.66.98-1.39Z"/>
  <path d="M201.83,415.62c1.31,1.45-1.98.18-1.91,1.19.05.61,2.26.48.95,1.44l-3.36.23c.68-.95,2.91-4.42,4.32-2.87Z"/>
  <path d="M407.56,392.62l2.1.67-1.2,2.64c-.86.18-1.86-1.34-1.71-2.15l.8-1.16Z"/>
  <path d="M200.39,401.71c.35,1.62-1.1.71-2.09.94-.46.11-.05,1.41-1.26.97-1.4-3.69,1.08-2.98,3.35-1.91Z"/>
  <path d="M419.27,423.78l.26,3.36h-2.65c-.33-1.19.6-.75.93-1.33s-.19-2.28,1.47-2.03Z"/>
  <path d="M188.39,414.18c-.48.92-.48,1.47,0,2.39l-4.31-.24c1.74-1.11,1.9-2.78,4.31-2.16Z"/>
  <path d="M230.15,420.42c-.25,2.39-3.45,2.48-5.28,2.39-.27-1.46.45-.73,1.13-1s3.77-1.73,4.14-1.39Z"/>
  <path d="M208.07,439.62c-.12,2.43-.91,2.74-3.36,2.87.17-1.84,1.43-3.24,3.36-2.87Z"/>
  <path d="M441.72,421.01c.12.15,1.19,3.57,1.07,3.72-2.65-.44-1.12-3.65-3.84-3.37-.57-1.68,2.36-.85,2.77-.36Z"/>
  <path d="M313.6,411.85c-.34-.28-1.34,0-1.86-.07-.41-1.64,2-.97,2.9-.74.54.33,1.36,3.16.22,3.13-.81-.02-1.16-2.23-1.27-2.32Z"/>
  <path d="M236.39,400.25l-2.59,1.01-1.24-2.44c1.8,1.2,3.24-1.86,3.83,1.43Z"/>
  <path d="M236.39,448.74c-2.61-.38-1.52-3.2-.95-4.8,2.13.76.23,2.83.95,4.8Z"/>
  <path d="M591.59,395.46l-.23,2.88c-.59,1.12-2.91-.25-2.42-1.45.71-.85,1.41-1.64,2.64-1.43Z"/>
  <path d="M329.03,420.9c.48.74.09,2.31-.72,2.39-1.17.11.07-2.45.37-2.74.51-.5,1.72-.65,2.42-1.09.47-.29.08-1.14.8-.96.99,2.24-1.08,2.58-2.88,2.4Z"/>
  <path d="M388.07,396.9c.48.31.43,3.8-1.67,3.35-1.16-.25.32-2.23-.02-2.86.24-.55,1.4-.68,1.69-.49Z"/>
  <path d="M247.44,406.02l.06-3.29c1.3-.73,1.95-.52,2.81.65l-2.87,2.64Z"/>
  <path d="M398.15,406.5c.13,3.62-2.68.41-4.8.47l1.68-1.43.98,1.39,2.13-.43Z"/>
  <path d="M221.41,434.93c.12,1.8,1.88-.55,2.5,1.32l-3.8.94c-.78-1.74-.76-2.21,1.3-2.26Z"/>
  <path d="M399.99,417.14l.07,1.84-1.43-.49-.96,1.92c-.72-1.57.03-2.37.5-3.83l1.81.55Z"/>
  <path d="M231.11,408.9l-.48,2.4c-1.73-.09-4.15-1.22-2.16-2.87.8,1.13,1.48.82,2.64.47Z"/>
  <path d="M229.67,393.06c-.35,1.31,1.21,2.36,1.29,2.53.96,2.2-1.12,2.48-1.66.96-.14-.4-1.15-4.82.37-3.5Z"/>
  <path d="M300.23,392.58c.52.49-2.91,4.8-3.36,2.63-.34-1.68,2.03-2.54,3.36-2.63Z"/>
  <path d="M662.16,444.9l1.2-.95c2.56,3.26-4.45,3.79-1.44,0l.24.96Z"/>
  <polygon points="204.23 431.46 204.01 432.44 205.19 433.37 201.35 434.82 203.26 432.66 202.31 431.46 204.23 431.46"/>
  <path d="M205.19,427.14v2.88c-1.77-.74-3.11-.16-2.19-2.43l2.19-.45Z"/>
  <path d="M247.91,412.74c-.93.16-.21-1.11-.5-1.4-.31-.3-3.14.56-2.85-1.47l3.84.23-.49,2.64Z"/>
  <path d="M653.03,424.26c-.36,1.26-3.61,3.29-4.32,1.67,1.52-1.26,2-2.14,4.32-1.67Z"/>
  <path d="M581.03,422.34c-.14,1.55-2.7,1.31-2.86,1.46-.35.33.56,2.4-.5,2.38-.8-2.11.05-2.55,1.03-4.25l2.32.42Z"/>
  <path d="M315.52,417.93c-3.8,1.53.02-3.72.32-3.74,1.52-.1-.22,3.31-.32,3.74Z"/>
  <path d="M320.87,419.45c-1.21.52-.89-.99-1.21-.98-.77,0-3.09,1.75-4.07.03,1.77.16,2.98-.62,4.08-1.92l1.2,2.87Z"/>
  <path d="M443.75,400.74c.06-1.28,1.38-1.5.48-2.87,3.45.48,3.21,3.43-.48,2.87Z"/>
  <polygon points="375.11 396.9 374.56 398.73 373.29 398.69 371.27 395.46 372.73 395.19 373.64 397.18 375.11 396.9"/>
  <path class="cls-1" d="M494.15,404.1c1.05,1.11-.91,1.99-.91,2.12.1,2.69,2.47,6.77,1.9,9.61l-1.47.26.49,2.15-.96.24c-.91-1.12-.48-2.47-.74-3.33-.48-1.53-2.63-2.19.19-3.65-.83-1.25.1-2.53.07-3.3-.01-.3-.82-.21-.94-.58-.52-1.62,1.24-4.72,2.36-3.53Z"/>
  <path class="cls-1" d="M217.19,404.1l-.96,4.79-.74-.99-1.65.51c-.59-2.2.47-2.02.96-2.74.76-1.12-.09-2,2.39-1.57Z"/>
  <path d="M374.63,110.34l-.96,2.87c.63.72,3.89-.85,3.35.96l-6.72,2.89c-.91-.99,3.43-7.58,4.32-6.71Z"/>
</svg>